<svg xmlns="http://www.w3.org/2000/svg" xmlns:xlink="http://www.w3.org/1999/xlink" width="1200" height="1200" viewBox="0 0 1200 1200"><g><g transform="translate(600 600) scale(0.69 0.69) rotate(0) translate(-600 -600)" style="fill:#666666;"><svg fill="#666666" xmlns="http://www.w3.org/2000/svg" viewBox="0 0 100 100" x="0px" y="0px"><title>•SET9-v2</title><path d="M50.35,92.33a42.1,42.1,0,1,1,42.09-42.1A42.15,42.15,0,0,1,50.35,92.33Zm0-80.79A38.7,38.7,0,1,0,89,50.23,38.74,38.74,0,0,0,50.35,11.54Z"></path><path d="M81.85,53.45l-4.26-1.71a2.83,2.83,0,0,1-1.49-1.4l-.46-.93a9.69,9.69,0,0,0,4.14-8.14c0-5.17-3.68-9.38-8.21-9.38s-8.22,4.21-8.22,9.38a9.83,9.83,0,0,0,3.41,7.59L66,50.34a6.06,6.06,0,0,1-1.84,1.72l-4.74-1.91a4.78,4.78,0,0,1-2.54-2.37l-.75-1.55a12.69,12.69,0,0,0,4.67-10.06C60.84,29.48,56.11,24,50.29,24S39.75,29.48,39.75,36.17a12.6,12.6,0,0,0,5,10.3l-.63,1.31a4.82,4.82,0,0,1-2.54,2.37L36.9,52a5.88,5.88,0,0,1-1.81-1.7l-.72-1.48a9.83,9.83,0,0,0,3.41-7.59c0-5.17-3.69-9.38-8.22-9.38s-8.21,4.21-8.21,9.38a9.7,9.7,0,0,0,4.13,8.14l-.45.93a2.83,2.83,0,0,1-1.49,1.4l-4.26,1.71a6.49,6.49,0,0,0-4.09,6.06,1.7,1.7,0,1,0,3.4,0,3.12,3.12,0,0,1,2-2.9l4.25-1.72a6.18,6.18,0,0,0,3.29-3.07l.59-1.22a6.4,6.4,0,0,0,.88.06,7.09,7.09,0,0,0,1.79-.24l.68,1.4a6.6,6.6,0,0,0,1.51,1.9,8.59,8.59,0,0,0-3.49,6.92v17.1a1.7,1.7,0,0,0,3.4,0V60.64a5.21,5.21,0,0,1,3.29-4.87l6.11-2.46a8.19,8.19,0,0,0,4.34-4.05L47.82,48a9,9,0,0,0,5.35-.12l.69,1.43a8.2,8.2,0,0,0,4.33,4.05l6.12,2.46a5.21,5.21,0,0,1,3.29,4.87v17.1a1.7,1.7,0,0,0,3.4,0V60.64a8.58,8.58,0,0,0-3.45-6.89,6.89,6.89,0,0,0,1.55-1.93l.68-1.4a7.09,7.09,0,0,0,1.79.24,6.25,6.25,0,0,0,.87-.06l.6,1.22a6.19,6.19,0,0,0,3.28,3.07l4.26,1.72a3.12,3.12,0,0,1,2,2.9,1.7,1.7,0,0,0,3.4,0A6.51,6.51,0,0,0,81.85,53.45ZM24.75,41.27c0-3.3,2.16-6,4.81-6s4.82,2.68,4.82,6-2.16,6-4.82,6S24.75,44.57,24.75,41.27Zm18.4-5.1c0-4.82,3.21-8.73,7.14-8.73s7.15,3.91,7.15,8.73-3.21,8.73-7.15,8.73S43.15,41,43.15,36.17Zm23.6,5.1c0-3.3,2.16-6,4.82-6s4.81,2.68,4.81,6-2.16,6-4.81,6S66.75,44.57,66.75,41.27Z"></path></svg></g></g></svg>