<svg xmlns="http://www.w3.org/2000/svg" xmlns:xlink="http://www.w3.org/1999/xlink" width="1200" height="1200" viewBox="0 0 1200 1200"><g><g transform="translate(600 600) scale(0.69 0.69) rotate(0) translate(-600 -600)" style="fill:#666666;"><svg fill="#666666" xmlns="http://www.w3.org/2000/svg" xmlns:xlink="http://www.w3.org/1999/xlink" viewBox="0 0 100 100" version="1.1" x="0px" y="0px"><title>Reliability</title><desc>Created with Sketch.</desc><g stroke="none" stroke-width="1" fill="none" fill-rule="evenodd"><g fill="#666666"><g transform="translate(7.000000, 0.000000)"><path d="M80.2945455,50.1794949 C75.1763636,72.3845455 62.5783838,88.0764646 42.8420202,96.83 C23.1056566,88.0764646 10.5076768,72.3845455 5.38949495,50.1794949 C2.14,36.0845455 3.09555556,23.6461616 3.50666667,19.8754545 C23.829899,17.7582828 38.8894949,6.66939394 42.8420202,3.48555556 C46.7945455,6.66939394 61.8541414,17.7582828 82.1763636,19.8754545 C82.5884848,23.6461616 83.5440404,36.0845455 80.2945455,50.1794949 M85.0288889,18.2532323 C84.9228283,17.5613131 84.3571717,17.0320202 83.660202,16.9724242 C60.7672727,15.0188889 44.0086869,0.521919192 43.8420202,0.375454545 C43.270303,-0.125555556 42.4137374,-0.125555556 41.8420202,0.375454545 C41.6753535,0.521919192 24.9167677,15.0188889 2.02383838,16.9724242 C1.32585859,17.0320202 0.761212121,17.5613131 0.655151515,18.2532323 C0.561212121,18.8613131 -1.57616162,33.3653535 2.41272727,50.7592929 C6.11373737,66.8976768 16.0258586,88.5178788 42.2389899,99.8734343 C42.4319192,99.9572727 42.6369697,99.9986869 42.8420202,99.9986869 C43.0470707,99.9986869 43.2521212,99.9572727 43.4450505,99.8734343 C69.6581818,88.5178788 79.570303,66.8976768 83.270303,50.7592929 C87.260202,33.3653535 85.1218182,18.8613131 85.0288889,18.2532323"></path><path d="M42.8419192,84.5969697 C11.2156566,70.4373737 13.1015152,34.720202 13.780303,27.8212121 C28.5308081,26.1909091 39.5469697,18.3161616 42.8419192,15.7080808 C46.1368687,18.3161616 57.1550505,26.1909091 71.9035354,27.8212121 C72.5914141,34.7171717 74.5085859,70.4212121 42.8419192,84.5969697 M73.3954545,24.9232323 C56.4126263,23.4737374 43.9651515,12.7151515 43.8419192,12.6060606 C43.270202,12.1050505 42.4136364,12.1050505 41.8419192,12.6060606 C41.7186869,12.7151515 29.2712121,23.4737374 12.2883838,24.9232323 C11.5914141,24.9818182 11.0257576,25.5121212 10.919697,26.2030303 C10.8510101,26.6525253 4.50151515,71.2929293 42.2388889,87.6424242 C42.4318182,87.7262626 42.6368687,87.7676768 42.8419192,87.7676768 C43.0469697,87.7676768 43.2520202,87.7262626 43.4449495,87.6424242 C81.1823232,71.2929293 74.8328283,26.6525253 74.7641414,26.2030303 C74.6580808,25.5121212 74.0924242,24.9818182 73.3954545,24.9232323"></path><path d="M57.389697,43.9393939 L41.8149495,59.1959596 C40.6361616,60.3484848 38.6139394,60.3515152 37.4331313,59.2060606 L28.8957576,50.9080808 C28.2947475,50.3252525 27.9573737,49.5424242 27.9462626,48.7050505 C27.9341414,47.8666667 28.2482828,47.0747475 28.8331313,46.4747475 C29.4472727,45.8424242 30.2654545,45.5242424 31.0846465,45.5242424 C31.8725253,45.5242424 32.6624242,45.8181818 33.2694949,46.4090909 L38.550303,51.5424242 C39.1391919,52.1161616 40.0775758,52.1161616 40.6664646,51.5383838 L52.9987879,39.4575758 C54.2361616,38.2474747 56.2270707,38.2707071 57.4361616,39.5030303 C58.0220202,40.1020202 58.340202,40.8929293 58.3321212,41.730303 C58.3230303,42.5686869 57.9886869,43.3525253 57.389697,43.9393939 M50.8785859,37.2939394 L39.6028283,48.3393939 L35.3816162,44.2363636 C32.9432323,41.8676768 29.0311111,41.9242424 26.660404,44.3616162 C25.5119192,45.5434343 24.8927273,47.1010101 24.9169697,48.7474747 C24.9391919,50.3949495 25.6028283,51.9343434 26.7836364,53.0818182 L35.3210101,61.379798 C36.4806061,62.5040404 38.0068687,63.1232323 39.6189899,63.1232323 C41.2422222,63.1232323 42.7745455,62.4979798 43.9361616,61.3606061 L59.5109091,46.1050505 C60.6876768,44.9515152 61.3452525,43.410101 61.3624242,41.7626263 C61.3785859,40.1151515 60.7533333,38.559596 59.599798,37.3828283 C57.22,34.9535354 53.3088889,34.9141414 50.8785859,37.2939394"></path></g></g></g></svg></g></g></svg>