<svg xmlns="http://www.w3.org/2000/svg" xmlns:xlink="http://www.w3.org/1999/xlink" width="1200" height="1200" viewBox="0 0 1200 1200"><g><g transform="translate(600 600) scale(0.69 0.69) rotate(0) translate(-600 -600)" style="fill:#666666;"><svg fill="#666666" xmlns="http://www.w3.org/2000/svg" xmlns:xlink="http://www.w3.org/1999/xlink" version="1.1" x="0px" y="0px" viewBox="0 0 65 65" enable-background="new 0 0 65 65" xml:space="preserve"><g><path d="M49.7,41c2.1,0,4.1-1.1,5.1-2.9c0.8-1.4,1-3,0.6-4.5c-0.3-1-0.8-2-1.6-2.7c2.6-0.6,4.4-3,4.4-5.7c0-2.8-1.9-5.1-4.4-5.7   c1.9-1.8,2.4-4.8,1-7.2c-1.1-1.8-3-3-5.1-3c-0.5,0-1.1,0.1-1.6,0.2c0.7-2.5-0.3-5.3-2.7-6.7c-0.9-0.5-1.9-0.8-3-0.8   c-1.6,0-3.1,0.7-4.2,1.8c-0.6-2.6-3-4.5-5.7-4.5c-2.8,0-5.1,1.9-5.7,4.5C25.7,2.7,24.2,2,22.5,2c-1,0-2,0.3-2.9,0.8   c-2.4,1.4-3.4,4.2-2.7,6.7c-0.5-0.1-1.1-0.2-1.6-0.2c-2.1,0-4.1,1.1-5.1,3c-1.4,2.4-0.9,5.3,1,7.2c-2.6,0.6-4.4,3-4.4,5.7   c0,2.8,1.9,5.1,4.4,5.7c-1.9,1.8-2.4,4.8-1,7.2c1.1,1.8,3,3,5.1,3c0.1,0,0.1,0,0.2,0L8.3,61.8l8.1-2.8l4.9,6.7l6.2-17.6   c1,1.7,2.9,2.9,5.1,2.9c2.1,0,4-1.1,5-2.8l6.2,17.6l4.9-6.7l8.1,2.8L49.5,41C49.6,41,49.7,41,49.7,41z M20.8,62.5L17,57.2l-6.3,2.2   l6-17.4c0,0.6,0,1.3,0.2,1.9c0.4,1.5,1.4,2.8,2.7,3.6c0.9,0.5,1.9,0.8,2.9,0.8c1.4,0,2.7-0.5,3.7-1.3L20.8,62.5z M32.5,49.4   c-2.4,0-4.4-2-4.4-4.4c0-0.2,0-0.4,0-0.6c0-0.2,0.1-0.5,0.1-0.6l-1.4-0.4l0,0.2c0,0.1-0.1,0.3-0.2,0.4c-0.1,0.2-0.2,0.3-0.3,0.5   c-0.8,1.4-2.2,2.2-3.8,2.2c-0.8,0-1.5-0.2-2.2-0.6c-1-0.6-1.7-1.5-2-2.7c-0.3-1.1-0.1-2.3,0.4-3.4c0.1-0.2,0.2-0.3,0.3-0.5   c0.1-0.1,0.2-0.2,0.3-0.3l0.1-0.1l-1.1-1l-0.1,0.1c-0.1,0.1-0.2,0.2-0.4,0.3c-0.1,0.1-0.3,0.2-0.4,0.3c-0.7,0.4-1.4,0.6-2.2,0.6   c-1.6,0-3-0.8-3.8-2.2c-1.2-2.1-0.5-4.8,1.6-6c0.2-0.1,0.3-0.2,0.5-0.3c0.2-0.1,0.4-0.1,0.6-0.2l-0.4-1.4c-0.2,0.1-0.4,0.1-0.6,0.1   c-0.2,0-0.4,0-0.5,0c-2.4,0-4.4-2-4.4-4.4c0-2.6,2.3-4.8,5-4.4c0.1,0,0.3,0,0.4,0.1c0.1,0,0.2,0,0.2,0.1l0.4-1.4   c-0.1,0-0.2,0-0.2-0.1l0,0c-0.1,0-0.3-0.1-0.4-0.1c-0.2-0.1-0.4-0.2-0.5-0.3c-2.1-1.2-2.8-3.9-1.6-6c0.8-1.4,2.3-2.2,3.8-2.2   c0.8,0,1.5,0.2,2.2,0.6c0.2,0.1,0.3,0.2,0.5,0.3c0.1,0.1,0.3,0.2,0.4,0.4l1.1-1.1c-0.1-0.1-0.3-0.3-0.4-0.4   c-0.1-0.1-0.2-0.3-0.3-0.5c-1.2-2.1-0.5-4.8,1.6-6c0.7-0.4,1.4-0.6,2.2-0.6c1.6,0,3,0.8,3.8,2.2c0.1,0.2,0.2,0.3,0.3,0.5   c0.1,0.2,0.1,0.4,0.2,0.6l1.4-0.4c-0.1-0.2-0.1-0.4-0.1-0.6c0-0.2,0-0.4,0-0.5c0-2.4,2-4.4,4.4-4.4c2.4,0,4.4,2,4.4,4.4   c0,0.2,0,0.4,0,0.5l0,0.7l1.3,0.4l0.3-0.6c0.1-0.2,0.2-0.4,0.3-0.5c0.8-1.4,2.2-2.2,3.8-2.2c0.8,0,1.5,0.2,2.2,0.6   c2.1,1.2,2.8,3.9,1.6,6c-0.1,0.2-0.2,0.3-0.3,0.5c-0.1,0.1-0.2,0.3-0.3,0.4l0,0c0,0,0,0,0,0l-0.1,0.1l1.1,1l0.1-0.1   c0.1-0.1,0.2-0.2,0.4-0.3c0.1-0.1,0.3-0.2,0.5-0.3c0.7-0.4,1.4-0.6,2.2-0.6c1.6,0,3,0.8,3.8,2.2c1.2,2.1,0.5,4.8-1.6,6   c-0.2,0.1-0.3,0.2-0.5,0.3c-0.2,0.1-0.4,0.1-0.6,0.2l0.4,1.4c0.2-0.1,0.4-0.1,0.6-0.1c0.2,0,0.4,0,0.5,0c2.4,0,4.4,2,4.4,4.4   c0,2.4-2,4.4-4.4,4.4c-0.2,0-0.4,0-0.6,0L51,29.4v0.8l-0.2,0.6l0.6,0.3c0.2,0.1,0.4,0.2,0.5,0.3c1,0.6,1.7,1.5,2,2.7   c0.3,1.1,0.1,2.3-0.4,3.3c-0.8,1.4-2.2,2.2-3.8,2.2c-0.8,0-1.5-0.2-2.2-0.6c-0.2-0.1-0.3-0.2-0.5-0.3c-0.1-0.1-0.2-0.2-0.3-0.3l0,0   c0,0,0,0,0,0l-0.1-0.1l-1,1.1l0.1,0.1c0.1,0.1,0.2,0.2,0.3,0.3c0.1,0.1,0.2,0.3,0.3,0.5c0.6,1,0.7,2.2,0.4,3.3   c-0.3,1.1-1,2.1-2.1,2.7c-0.7,0.4-1.4,0.6-2.2,0.6c-1.6,0-3-0.8-3.8-2.2c-0.1-0.2-0.2-0.3-0.3-0.5c-0.1-0.2-0.1-0.4-0.2-0.6   l-1.4,0.4c0.1,0.2,0.1,0.4,0.1,0.6c0,0.2,0,0.4,0,0.5C36.9,47.5,34.9,49.4,32.5,49.4z M48,57.2l-3.8,5.3l-5.5-15.6   c1,0.9,2.4,1.4,3.8,1.4c1,0,2-0.3,2.9-0.8c1.4-0.8,2.3-2.1,2.8-3.6c0.2-0.6,0.2-1.2,0.2-1.8l5.9,17.2L48,57.2z"></path><path d="M47.7,25.1c0-8.4-6.8-15.2-15.2-15.2c-8.4,0-15.2,6.8-15.2,15.2s6.8,15.2,15.2,15.2C40.9,40.3,47.7,33.5,47.7,25.1z    M18.9,25.1c0-7.5,6.1-13.7,13.7-13.7c7.5,0,13.7,6.1,13.7,13.7c0,3.4-1.3,6.6-3.4,9c-0.1-1.6-0.3-2.6-0.3-2.9   c0-0.8-0.3-1.6-0.7-2.5c-0.5-0.9-1.3-1.5-2.3-1.9l-3.6-1.3l-3,5.6h-0.7l-3-5.6l-3.6,1.3c-1,0.4-1.8,1-2.3,1.9   c-0.5,0.8-0.7,1.6-0.7,2.5c0,0.2-0.2,1.2-0.3,2.9C20.1,31.7,18.9,28.6,18.9,25.1z M23.7,35.5c0.1-2.7,0.4-4.1,0.4-4.1l0-0.1   c0-0.7,0.3-1.3,0.5-1.8c0.3-0.6,0.8-1,1.5-1.2l2.3-0.8l2.8,5.3h2.5l2.8-5.3l2.3,0.8c0.6,0.2,1.2,0.7,1.5,1.2   c0.2,0.4,0.5,1.1,0.5,1.8l0,0.1c0,0,0.2,1.4,0.4,4.1c-2.4,2-5.5,3.3-8.8,3.3C29.1,38.8,26.1,37.6,23.7,35.5z"></path><path d="M32.4,25.5c2.6,0,4.8-2.1,4.8-4.8c0-2.6-2.1-4.8-4.8-4.8c-2.6,0-4.8,2.1-4.8,4.8C27.6,23.4,29.7,25.5,32.4,25.5z    M32.4,17.5c1.8,0,3.3,1.5,3.3,3.3c0,1.8-1.5,3.3-3.3,3.3c-1.8,0-3.3-1.5-3.3-3.3C29.1,18.9,30.6,17.5,32.4,17.5z"></path></g></svg></g></g></svg>