<svg xmlns="http://www.w3.org/2000/svg" xmlns:xlink="http://www.w3.org/1999/xlink" width="1200" height="1200" viewBox="0 0 1200 1200"><g><g transform="translate(600 600) scale(0.69 0.69) rotate(0) translate(-600 -600)" style="fill:#666666;"><svg fill="#666666" xmlns="http://www.w3.org/2000/svg" xmlns:xlink="http://www.w3.org/1999/xlink" version="1.1" x="0px" y="0px" viewBox="0 0 100 100" enable-background="new 0 0 100 100" xml:space="preserve"><path d="M79,71h-3V25c0-0.552-0.448-1-1-1h-6c-0.552,0-1,0.448-1,1v46h-3V35c0-0.552-0.448-1-1-1h-6c-0.552,0-1,0.448-1,1v36h-3V30  c0-0.552-0.448-1-1-1h-6c-0.552,0-1,0.448-1,1v41h-3V43c0-0.552-0.448-1-1-1h-6c-0.552,0-1,0.448-1,1v28h-3V35c0-0.552-0.448-1-1-1  h-6c-0.552,0-1,0.448-1,1v36h-3c-0.552,0-1,0.448-1,1v3c0,0.552,0.448,1,1,1h58c0.552,0,1-0.448,1-1v-3C80,71.448,79.552,71,79,71z   M70,26h4v45h-4V26z M59,36h4v35h-4V36z M48,31h4v40h-4V31z M37,44h4v27h-4V44z M26,36h4v35h-4V36z M78,74H22v-1h56V74z"></path></svg></g></g></svg>