<svg xmlns="http://www.w3.org/2000/svg" xmlns:xlink="http://www.w3.org/1999/xlink" width="1200" height="1200" viewBox="0 0 1200 1200"><g><g transform="translate(600 600) scale(0.69 0.69) rotate(0) translate(-600 -600)" style="fill:#666666;"><svg fill="#666666" xmlns="http://www.w3.org/2000/svg" xmlns:xlink="http://www.w3.org/1999/xlink" version="1.1" x="0px" y="0px" viewBox="0 0 100 100" enable-background="new 0 0 100 100" xml:space="preserve"><path d="M40.677,72.597h18.646c1.104,0,2-0.896,2-2s-0.896-2-2-2H40.677c-1.104,0-2,0.896-2,2S39.572,72.597,40.677,72.597z"></path><path d="M40.677,78.271h18.646c1.104,0,2-0.896,2-2s-0.896-2-2-2H40.677c-1.104,0-2,0.896-2,2S39.572,78.271,40.677,78.271z"></path><path d="M82.5,4.5h-65c-1.104,0-2,0.896-2,2v54c0,1.104,0.896,2,2,2h0.348v22.208c0,0.556,0.228,1.059,0.595,1.422v4.196  c0,2.853,2.321,5.174,5.174,5.174h5.29c2.853,0,5.174-2.321,5.174-5.174v-3.618h31.725v3.618c0,2.853,2.321,5.174,5.174,5.174h5.29  c2.853,0,5.174-2.321,5.174-5.174v-4.101c0.431-0.367,0.71-0.906,0.71-1.517V62.5H82.5c1.104,0,2-0.896,2-2v-54  C84.5,5.396,83.604,4.5,82.5,4.5z M78.152,75.573H74.35c-0.582,0-1.055-0.473-1.055-1.055v-2.037c0-0.582,0.473-1.055,1.055-1.055  h3.803V75.573z M78.152,67.426H74.35c-2.787,0-5.055,2.268-5.055,5.055v2.037c0,2.788,2.268,5.055,5.055,5.055h3.803v3.135H21.848  v-3.135H25.4c2.788,0,5.056-2.268,5.056-5.055v-2.037c0-2.788-2.268-5.055-5.056-5.055h-3.553V62.5h56.305V67.426z M21.848,71.426  H25.4c0.582,0,1.056,0.473,1.056,1.055v2.037c0,0.582-0.474,1.055-1.056,1.055h-3.553V71.426z M22.067,58.5l1.775-17h52.314  l1.775,17H22.067z M26.223,37.5c2.01-1.468,5.684-3,12.265-3h23.025c7.113,0,10.767,1.561,12.622,3H26.223z M80.5,8.5v36.075  l-0.526-5.033c0-0.014,0.004-0.028,0.004-0.042c0-0.251-0.046-0.492-0.131-0.714c-0.485-1.843-3.264-8.286-18.335-8.286H38.487  c-15.545,0-18.247,8.059-18.354,8.402c-0.001,0.002,0,0.004-0.001,0.006c-0.038,0.123-0.066,0.251-0.08,0.384L19.5,44.575V8.5H80.5z   M30.08,90.326c0,0.647-0.526,1.174-1.174,1.174h-5.29c-0.647,0-1.174-0.526-1.174-1.174v-3.618h7.638V90.326z M76.269,91.5h-5.29  c-0.647,0-1.174-0.526-1.174-1.174v-3.618h7.638v3.618C77.442,90.974,76.916,91.5,76.269,91.5z"></path></svg></g></g></svg>