<svg xmlns="http://www.w3.org/2000/svg" viewBox="0 0 730.75 98.72"><defs><style>.cls-1,.cls-2{fill:#314085;}.cls-2,.cls-3{stroke:#314085;stroke-linejoin:round;stroke-width:1.32px;}.cls-3{fill:#fff;}</style></defs><title>LogoText</title><g id="Слой_2" data-name="Слой 2"><g id="Layer_1" data-name="Layer 1"><path class="cls-1" d="M32.43,52.78c-3.26,2.52-7.63,2.08-9.65-.37C21,50.28,20.13,47,20.13,42.75a36.4,36.4,0,0,1,2.44-12.88c1.52-4,5-11,11-11.21a6.24,6.24,0,0,1,4.65,1.46C39.63,21.37,40.5,28,40.5,28l19.65,0A23.73,23.73,0,0,0,52.41,6.65C47.56,2.32,41.4,0,33.84,0c-6.6,0-11,1.84-16.52,5.48A35.64,35.64,0,0,0,4.46,20.89,50.92,50.92,0,0,0,0,42.26C0,52,2.38,59.7,7.06,65.06,12,70.65,17,73.49,25.55,73.49a31.05,31.05,0,0,0,19.63-6.57c5.41-4.24,9.49-10.35,12.13-18.17l1.09-4.59-20.81-.58A12.67,12.67,0,0,1,32.43,52.78Z"/><path class="cls-1" d="M111.14,1.09H82L54.6,72.36H77.31l2.85-10H97.45l.59,10h23.44Zm-13.91,45H86.31l6.28-26.41Z"/><path class="cls-1" d="M184.13,10.05a15.21,15.21,0,0,0-7.29-7.16c-2.77-1.21-6.37-1.8-11-1.8H138.91L126.35,72.36h20L151,45.05c2.49,0,3.15.47,3.1.44.68.56,2.07,3,3.75,7.6,2.37,6.5.6,14.73.59,14.8l-1,4.47h20.2l-.21-3.86c-.16-2.83,1.29-13.38-3.76-23.5-.36-.73-.74-1.42-1.12-2.07,3.82-1.39,6.9-2.75,9.19-5.71,3.24-4.18,4.88-9.47,4.88-15.72A24.43,24.43,0,0,0,184.13,10.05Zm-28,9h7.13a13.44,13.44,0,0,1,4.35.43c.3.24.79.74.79,2.2a7,7,0,0,1-1.11,3.74A6.16,6.16,0,0,1,164.39,28c-.66.29-2.94,1-10,1Z"/><path class="cls-1" d="M217,30.89l-3.2,18h12.7s.21,9-8.27,8.25H217c-3.45,0-5.18-2.28-6.8-4.41s-2.38-5.36-2.38-9.72a39.93,39.93,0,0,1,2.34-13.87c1.45-3.91,3.42-6.8,5.84-8.57,2.79-2,5.13-2.77,7.43-2.63,8.22.46,7.29,9.72,7.29,9.72l16.71-.24.22-3.36c.56-8.13-1.33-13.5-6.3-18C236.86,2.05,230.93,0,223.72,0A29,29,0,0,0,205,6.48C199.79,10.67,195.77,16.57,193,24a55,55,0,0,0-3.39,19.16c0,9.82,2.61,16.79,8.46,22.6,3.81,3.79,9.69,7.67,24.32,7.67,4.51,0,17.09-1.55,17.63-1.61l2.76-.35,5.94-40.6Z"/><path class="cls-1" d="M305.5,8.66A22.09,22.09,0,0,0,287.44,0,26.23,26.23,0,0,0,273,4.13a32.66,32.66,0,0,0-10.38,11,52.1,52.1,0,0,0-5.9,15.74,60.18,60.18,0,0,0-1.46,12.78A41.65,41.65,0,0,0,257.46,57a25.86,25.86,0,0,0,8,11.69,21.54,21.54,0,0,0,14.19,4.83,26.89,26.89,0,0,0,16.89-5.81c4.86-3.77,8.73-9.18,11.52-16.08a55.93,55.93,0,0,0,4.1-21C312.19,21.61,309.94,14.24,305.5,8.66ZM286.33,52.49c-1.68,1.75-3.31,2.6-5,2.6a5.34,5.34,0,0,1-4.79-3,16,16,0,0,1-2.09-8.62A41.69,41.69,0,0,1,278.1,26c2.16-4.71,4.78-7,8-7a5.33,5.33,0,0,1,4.68,2.87c1.38,2.14,2.08,5.29,2.08,9.35a42.24,42.24,0,0,1-1.95,12.32C289.67,47.59,288.13,50.6,286.33,52.49Z"/><path class="cls-1" d="M379,6.75l-1.62,10.36H355.93l-2.22,14.08h20.6l-1.62,10.36H352.08l-2.92,16.83h23.59l-1.66,10.36H334.68l9.74-62H379m6.19-5.3H339.89l-.7,4.48-9.74,62-1,6.12h47.12l.72-4.46L378,59.21l1-6.13H355.45l1.09-6.24h20.68l.7-4.47L379.54,32l.95-6.12H359.9l.56-3.48h21.43l.7-4.48,1.62-10.36,1-6.12Z"/><path class="cls-1" d="M612.11,6.75l-1.63,10.36H589.06l-2.22,14.08h20.59l-1.62,10.36h-20.6l-2.92,16.83h23.59l-1.66,10.36H567.81l9.74-62h34.56m6.19-5.3H573l-.7,4.48-9.74,62-1,6.12h47.12l.71-4.46,1.66-10.36,1-6.13H588.58l1.09-6.24h20.67l.7-4.47L612.67,32l1-6.12H593l.56-3.48H615l.71-4.48,1.62-10.36,1-6.12Z"/><path class="cls-1" d="M445.86,6.75,422.23,39.39l12.71,29.35H423l-3.87-9.35q-3-7.39-4-10.61-1.36,2.49-7.08,10.31l-7.11,9.65H387.16l22.78-31.38L397.12,6.75h11.1l5,11.63L416.71,27a9,9,0,0,1,.45,1.14q4.29-6.3,7.22-10.31l8.13-11h13.35m10.37-5.3H429.84l-1.59,2.16-8.13,11L418.41,17l-.21-.53,0-.1-.05-.11-5-11.63-1.39-3.19H389.16l3.08,7.35,11.67,27.86-21,29L376.77,74h26.8l1.58-2.15,7.12-9.64,1.45-2c.16.38.31.77.48,1.17l3.88,9.36L419.43,74H443l-3.21-7.4L428.29,40.05,450.15,9.86l6.08-8.41Z"/><path class="cls-1" d="M483.42,6.75a16.92,16.92,0,0,1,8,1.59,11,11,0,0,1,4.66,5.24,20.47,20.47,0,0,1,1.71,8.73,30.56,30.56,0,0,1-1.37,9.13,23.32,23.32,0,0,1-3.35,7.11,15.06,15.06,0,0,1-4.28,4,18.58,18.58,0,0,1-6.16,2.1,55.38,55.38,0,0,1-8.46.42H468l-3.72,23.64h-9.6l9.76-62h18.95m-13.8,28.08h3c5.06,0,8.45-.43,10.14-1.27a9.11,9.11,0,0,0,4-4.06,13.08,13.08,0,0,0,1.46-6.13,7.92,7.92,0,0,0-.75-3.68,4.55,4.55,0,0,0-2.1-2.1c-.9-.43-2.9-.65-6-.65h-6.87l-2.83,17.89m13.8-33.38H459.94l-.7,4.48-9.76,62-1,6.12h20.33l.7-4.47,3-19.16h1.61a52.61,52.61,0,0,0,9.43-.52,23.7,23.7,0,0,0,7.91-2.75,20.66,20.66,0,0,0,5.81-5.42A28.49,28.49,0,0,0,501.49,33a36.38,36.38,0,0,0,1.6-10.69,25.71,25.71,0,0,0-2.22-11,16.24,16.24,0,0,0-6.94-7.66,21.87,21.87,0,0,0-10.51-2.22ZM477,22.24h2.35a26.83,26.83,0,0,1,3.49.16,4.89,4.89,0,0,1,.08,1A7.79,7.79,0,0,1,482,27a3.81,3.81,0,0,1-1.68,1.78,15.23,15.23,0,0,1-4.53.63L477,22.24Z"/><path class="cls-1" d="M541.37,6.75a21.56,21.56,0,0,1,8.82,1.46,11,11,0,0,1,5.1,5.35A21,21,0,0,1,557.23,23q0,7.91-3.78,13c-2.53,3.42-6.33,5.55-11.44,6.36a25.14,25.14,0,0,1,3.68,5.8c2.27,4.84,3.09,20.55,3.09,20.55H537.84s1.91-8.95-.66-16.37q-2.08-6-4.46-8.07-1.44-1.23-5.06-1.23h-2.28L521.1,68.74H509l10.36-62h22m-14.43,27h3.52q8.2,0,10.89-1.23a9.18,9.18,0,0,0,4.2-3.84,10.87,10.87,0,0,0,1.52-5.5,6,6,0,0,0-2.19-5.08q-1.35-1-5.85-1h-9.32l-2.77,16.66M541.37,1.45H514.91l-.74,4.43-10.36,62-1,6.17h22.81l.74-4.42,3.46-20.68a21.38,21.38,0,0,1,2.4,5.19c2,5.87.5,13.45.48,13.53L531.34,74h23l-.29-5.57c-.15-2.79-1-17-3.59-22.52l-.27-.56a20.16,20.16,0,0,0,7.5-6.21c3.2-4.34,4.81-9.78,4.81-16.18A26.23,26.23,0,0,0,560,11.2a16.19,16.19,0,0,0-7.62-7.8c-2.83-1.31-6.45-1.95-11-1.95Zm-7.18,21H539a18.82,18.82,0,0,1,2.69.15,3.21,3.21,0,0,1,0,.64A5.59,5.59,0,0,1,541,26a3.88,3.88,0,0,1-1.82,1.68c-.15.07-1.4.56-6,.71l1-6Z"/><path class="cls-1" d="M646,5.69q10.26,0,15.89,5.12c3.74,3.41,5.81,8.35,6.17,14l-11.48-.23a9.24,9.24,0,0,0-3-6.43c-1.72-1.58-4.27-2.37-7.63-2.37s-5.68.62-7.1,1.86a6,6,0,0,0-2.13,4.69,5.63,5.63,0,0,0,2,4.4q1.95,1.77,8.63,4.86Q657.29,36.22,660,39.1A14.93,14.93,0,0,1,664.13,50,18.66,18.66,0,0,1,658,64q-6.1,5.82-17,5.81a29.41,29.41,0,0,1-13-2.68,15.9,15.9,0,0,1-7.77-7.47,25.93,25.93,0,0,1-2.11-11.44L629.55,48c.16,3.86.78,6.46,1.87,7.82q2.63,3.3,9.69,3.3c3.93,0,6.76-.75,8.51-2.24a6.9,6.9,0,0,0,2.63-5.42,6,6,0,0,0-2.15-4.65q-1.51-1.39-8.29-4.52a77.35,77.35,0,0,1-9.89-5.22A14.85,14.85,0,0,1,627,31.65a16.21,16.21,0,0,1-1.79-7.82,17.32,17.32,0,0,1,5.32-13Q635.87,5.69,646,5.69M646,.4c-8.12,0-14.55,2.23-19.1,6.65a22.47,22.47,0,0,0-6.94,16.78,21.55,21.55,0,0,0,2.42,10.33A20.31,20.31,0,0,0,629,41.49c.57.38,1.22.79,1.93,1.21l-1.44,0-11.41.19L613,43l-.13,5.08a31.35,31.35,0,0,0,2.62,13.84,21.18,21.18,0,0,0,10.23,10A34.74,34.74,0,0,0,641,75.09c8.63,0,15.58-2.45,20.64-7.28A23.84,23.84,0,0,0,669.43,50a20.16,20.16,0,0,0-5.59-14.55c-1.08-1.13-3.08-2.85-8.11-5.53h.7l11.48.23,5.77.12-.37-5.75c-.47-7.24-3.2-13.32-7.9-17.6S654.13.4,646,.4Zm-3.68,21.25s.79-.55,3.61-.55c1.92,0,3.36.34,4.05,1a4,4,0,0,1,1.33,3.05l.26,2.65-2.09-1c-5.63-2.61-7-3.76-7.26-4l0,0,0,0c-.15-.13-.17-.15-.17-.44a.72.72,0,0,1,.32-.7Zm-6.69,30.93c-.1-.19-.61-1.34-.75-4.78l-.12-3c1.44.73,3.06,1.51,4.88,2.35,5.62,2.6,6.81,3.53,6.93,3.63l.05,0h0c.37.32.37.46.37.68s0,.73-.77,1.39c-.19.16-1.33,1-5.07,1-3.26,0-5-.65-5.52-1.26Z"/><path class="cls-1" d="M703,5.69q10.26,0,15.88,5.12c3.75,3.41,5.81,8.35,6.18,14l-11.48-.23a9.28,9.28,0,0,0-3-6.43c-1.73-1.58-4.27-2.37-7.64-2.37s-5.67.62-7.09,1.86a6,6,0,0,0-2.13,4.69,5.63,5.63,0,0,0,1.95,4.4q2,1.77,8.62,4.86,10.07,4.61,12.8,7.49A15,15,0,0,1,721.2,50a18.7,18.7,0,0,1-6.1,14q-6.11,5.82-17,5.81a29.36,29.36,0,0,1-13-2.68,15.9,15.9,0,0,1-7.77-7.47,25.79,25.79,0,0,1-2.11-11.44L686.62,48c.16,3.86.78,6.46,1.87,7.82q2.61,3.3,9.69,3.3,5.88,0,8.51-2.24a6.9,6.9,0,0,0,2.63-5.42,6,6,0,0,0-2.15-4.65q-1.51-1.39-8.29-4.52a78.34,78.34,0,0,1-9.9-5.22,14.91,14.91,0,0,1-4.9-5.44,16.21,16.21,0,0,1-1.8-7.82,17.33,17.33,0,0,1,5.33-13Q692.94,5.69,703,5.69M703,.4c-8.12,0-14.55,2.23-19.1,6.65A22.47,22.47,0,0,0,677,23.83a21.55,21.55,0,0,0,2.42,10.33A20.22,20.22,0,0,0,686,41.49c.57.38,1.22.79,1.93,1.21l-1.44,0-11.41.19L670,43l-.13,5.08a31.14,31.14,0,0,0,2.62,13.85,21.12,21.12,0,0,0,10.23,10,34.7,34.7,0,0,0,15.34,3.22c8.64,0,15.58-2.45,20.65-7.28A23.84,23.84,0,0,0,726.5,50a20.16,20.16,0,0,0-5.59-14.55c-1.08-1.13-3.08-2.85-8.12-5.53h.71l11.49.23,5.76.12-.37-5.76c-.47-7.23-3.21-13.31-7.9-17.59S711.2.4,703,.4Zm-3.69,21.25s.8-.55,3.61-.55c1.93,0,3.37.34,4.06,1a4.07,4.07,0,0,1,1.33,3.05l.26,2.65-2.09-1c-5.63-2.61-7-3.76-7.26-4l0,0,0,0c-.15-.13-.17-.15-.17-.44a.73.73,0,0,1,.31-.7Zm-6.68,30.93c-.1-.19-.61-1.34-.75-4.78l-.12-3q2.16,1.09,4.87,2.35c5.63,2.6,6.83,3.53,6.94,3.63l0,0h0c.37.33.37.47.37.69s0,.73-.77,1.39c-.19.16-1.33,1-5.07,1-3.26,0-5-.65-5.52-1.26Z"/><path class="cls-2" d="M4.13,97.69V81.88h9.62v1.86H6v4.9h6.69v1.87H6v7.18Z"/><path class="cls-2" d="M27.68,90a9,9,0,0,1,2-6.22,6.28,6.28,0,0,1,4.87-2.17,6.34,6.34,0,0,1,3.44,1,6.74,6.74,0,0,1,2.46,2.82,10,10,0,0,1,.91,4.41,8.92,8.92,0,0,1-1.76,5.72,6.43,6.43,0,0,1-10.13-.06A8.67,8.67,0,0,1,27.68,90Zm1.95,0A6.67,6.67,0,0,0,31,94.55a4.51,4.51,0,0,0,6.93,0,7.2,7.2,0,0,0,1.4-4.79,8.84,8.84,0,0,0-.72-3.65,4.53,4.53,0,0,0-1.68-2A4.54,4.54,0,0,0,31,85,7.59,7.59,0,0,0,29.63,90Z"/><path class="cls-2" d="M54.6,97.69V81.88h6.32a7.34,7.34,0,0,1,2.92.44,3.64,3.64,0,0,1,1.55,1.47,4.66,4.66,0,0,1,.6,2.39,4.08,4.08,0,0,1-1,2.9,4.9,4.9,0,0,1-3,1.41,4.62,4.62,0,0,1,1.21.88,11,11,0,0,1,1.48,2L66,97.69H63.64l-.75-3.29a19.73,19.73,0,0,0-1.67-2.6,3.26,3.26,0,0,0-1.08-.9,3.92,3.92,0,0,0-1.48-.23H56.48v7Zm1.88-8.83h4.06a5.24,5.24,0,0,0,2-.3,2.37,2.37,0,0,0,1.09-.91,2.63,2.63,0,0,0,.41-1.46,2.4,2.4,0,0,0-.77-1.88A3.35,3.35,0,0,0,61,83.63H56.48Z"/><path class="cls-2" d="M83.56,97.69l-3.8-15.81h1.93l2.18,10.36c.22,1.07.43,2.15.6,3.24l.64-2.93,2.71-10.67h2.29l2,8a51.33,51.33,0,0,1,1.12,5.6c.18-1,.41-2.18.7-3.44L96.2,81.88h1.89L94.18,97.69H92.36l-3-12-.44-1.85c-.14.69-.28,1.31-.42,1.85l-3,12Z"/><path class="cls-2" d="M110.75,97.69l5.49-15.81h2l5.83,15.81h-2.16l-1.65-4.79h-6l-1.55,4.79Zm4.08-6.49h4.86l-1.48-4.38c-.46-1.35-.8-2.44-1-3.28a23.52,23.52,0,0,1-.78,3Z"/><path class="cls-2" d="M137.68,97.69V81.88H144a7.34,7.34,0,0,1,2.92.44,3.58,3.58,0,0,1,1.55,1.47,4.66,4.66,0,0,1,.6,2.39,4.12,4.12,0,0,1-1,2.9,5,5,0,0,1-3,1.41,4.79,4.79,0,0,1,1.21.88,11.46,11.46,0,0,1,1.48,2l1.34,4.31h-2.37L146,94.4a20.86,20.86,0,0,0-1.67-2.6,3.28,3.28,0,0,0-1.09-.9,3.85,3.85,0,0,0-1.48-.23h-2.17v7Zm1.89-8.83h4.05a5.26,5.26,0,0,0,2-.3,2.37,2.37,0,0,0,1.09-.91,2.62,2.62,0,0,0,.4-1.46,2.4,2.4,0,0,0-.77-1.88,3.33,3.33,0,0,0-2.29-.68h-4.5Z"/><path class="cls-2" d="M164.06,97.69V81.88H169a10.22,10.22,0,0,1,2.78.29,4.72,4.72,0,0,1,2.16,1.38,7.11,7.11,0,0,1,1.42,2.53,11.45,11.45,0,0,1,.51,3.62,10.7,10.7,0,0,1-.87,4.55,5.7,5.7,0,0,1-2.22,2.66,7.1,7.1,0,0,1-3.55.78ZM166,95.82h3a5.74,5.74,0,0,0,2.79-.54,3.52,3.52,0,0,0,1.46-1.75,9.93,9.93,0,0,0,.67-3.85,8.34,8.34,0,0,0-.71-3.78,3.71,3.71,0,0,0-1.85-1.84,6.65,6.65,0,0,0-2.4-.32h-3Z"/><path class="cls-2" d="M189,97.69V81.88h1.88V97.69Z"/><path class="cls-2" d="M205.37,97.69V81.88h1.93l7.5,12.44V81.88h1.8V97.69h-1.93l-7.48-12.44V97.69Z"/><path class="cls-2" d="M237,91.49V89.62h6v5.88a10.36,10.36,0,0,1-2.87,1.85,7.88,7.88,0,0,1-3.05.62,7.3,7.3,0,0,1-3.72-.95,6.81,6.81,0,0,1-2.59-2.77,9.45,9.45,0,0,1-1-4.39,10,10,0,0,1,1-4.51,6.6,6.6,0,0,1,2.51-2.83A7.12,7.12,0,0,1,237,81.6a6.61,6.61,0,0,1,2.73.53,5,5,0,0,1,1.94,1.5,6.63,6.63,0,0,1,1.13,2.66l-1.69.52a5.45,5.45,0,0,0-.87-2,3.43,3.43,0,0,0-1.37-1,4.73,4.73,0,0,0-1.92-.38,5.11,5.11,0,0,0-2.68.68,4.89,4.89,0,0,0-1.8,2.14,8.29,8.29,0,0,0-.68,3.53,6.8,6.8,0,0,0,1.46,4.75,4.93,4.93,0,0,0,3.79,1.58,6.43,6.43,0,0,0,4.14-1.64V91.49Z"/><path class="cls-2" d="M280.53,95.81A5.13,5.13,0,0,1,276.45,98a4.09,4.09,0,0,1-3.33-1.45,4.88,4.88,0,0,1-1.2-3.19q0-2.93,3.4-4.71a9.45,9.45,0,0,1-1.28-2,3.77,3.77,0,0,1-.33-1.5,3.38,3.38,0,0,1,1-2.51,3.45,3.45,0,0,1,2.49-1,3.24,3.24,0,0,1,2.36,1,3.29,3.29,0,0,1,1,2.42c0,1.5-.9,2.79-2.7,3.85l2.56,3.61a10.19,10.19,0,0,0,.69-2.2l1.81.43a12.16,12.16,0,0,1-1.26,3.41,11,11,0,0,0,2.22,2.42l-1.17,1.55A10.86,10.86,0,0,1,280.53,95.81Zm-1.12-1.52-3.19-4.42a6.69,6.69,0,0,0-1.88,1.69,2.86,2.86,0,0,0-.54,1.63,3.38,3.38,0,0,0,.74,2.06,2.27,2.27,0,0,0,1.91,1,3,3,0,0,0,1.6-.52A4,4,0,0,0,279.41,94.29ZM277,87.58a4.85,4.85,0,0,0,1.44-1.27,2.27,2.27,0,0,0,.36-1.27,1.89,1.89,0,0,0-.47-1.34,1.53,1.53,0,0,0-1.14-.49,1.62,1.62,0,0,0-1.17.48A1.71,1.71,0,0,0,275.5,85a2.75,2.75,0,0,0,.69,1.63Z"/><path class="cls-2" d="M321.24,92.15l1.89.52a7.13,7.13,0,0,1-2.2,4A5.77,5.77,0,0,1,317.11,98a5.74,5.74,0,0,1-5.68-3.7,10.86,10.86,0,0,1-.9-4.59,9.87,9.87,0,0,1,.9-4.42,6.43,6.43,0,0,1,2.43-2.73,6.5,6.5,0,0,1,3.41-.92,5.56,5.56,0,0,1,3.55,1.17,6.19,6.19,0,0,1,2.08,3.42l-1.85.49c-.63-2.19-1.91-3.29-3.81-3.29a4.51,4.51,0,0,0-2.47.66,4.57,4.57,0,0,0-1.67,2.07,8.9,8.9,0,0,0-.62,3.55,7.92,7.92,0,0,0,1.25,4.87,4,4,0,0,0,3.35,1.63,3.85,3.85,0,0,0,2.66-1A5.27,5.27,0,0,0,321.24,92.15Z"/><path class="cls-2" d="M346.05,81.88h1.88V91a12.06,12.06,0,0,1-.49,3.77,4.29,4.29,0,0,1-1.78,2.32,5.85,5.85,0,0,1-3.29.86,5.44,5.44,0,0,1-4.22-1.53q-1.39-1.53-1.4-5.42V81.88h1.88V91a9.33,9.33,0,0,0,.37,3.11,2.8,2.8,0,0,0,1.2,1.46,3.89,3.89,0,0,0,2,.5,3.7,3.7,0,0,0,2.92-1c.6-.7.9-2,.9-4Z"/><path class="cls-2" d="M361,92.6l1.78-.17a4.42,4.42,0,0,0,.64,2,3.6,3.6,0,0,0,1.44,1.17,5,5,0,0,0,2.11.44,4.09,4.09,0,0,0,2.62-.75,2.37,2.37,0,0,0,.93-1.94,2.15,2.15,0,0,0-.34-1.22,2.45,2.45,0,0,0-1-.86,21.7,21.7,0,0,0-2.95-.94,10.94,10.94,0,0,1-2.86-1.09,3.87,3.87,0,0,1-1.33-1.4,3.82,3.82,0,0,1-.48-1.91,4,4,0,0,1,1.37-3.14,5.31,5.31,0,0,1,3.67-1.22,6.36,6.36,0,0,1,2.78.57,4.28,4.28,0,0,1,1.85,1.64,5.09,5.09,0,0,1,.71,2.51l-1.82.15a3.21,3.21,0,0,0-1-2.28,3.64,3.64,0,0,0-2.45-.75,3.88,3.88,0,0,0-2.44.66,2,2,0,0,0-.84,1.68,1.85,1.85,0,0,0,.61,1.49,7.79,7.79,0,0,0,2.78,1.07,19.21,19.21,0,0,1,3,.92,4.81,4.81,0,0,1,2,1.59,4.16,4.16,0,0,1,.66,2.36,4.59,4.59,0,0,1-2.6,4.17,6.72,6.72,0,0,1-2.9.58,6,6,0,0,1-4.21-1.45A5.23,5.23,0,0,1,361,92.6Z"/><path class="cls-2" d="M390.24,97.69v-14h-4.69V81.88h11.29v1.86h-4.71v14Z"/><path class="cls-2" d="M409.54,90a9,9,0,0,1,2-6.22,6.26,6.26,0,0,1,4.87-2.17,6.37,6.37,0,0,1,3.44,1,6.81,6.81,0,0,1,2.46,2.82,10,10,0,0,1,.9,4.41,8.91,8.91,0,0,1-1.75,5.72,6.44,6.44,0,0,1-10.14-.06A8.73,8.73,0,0,1,409.54,90Zm1.94,0a6.67,6.67,0,0,0,1.42,4.54,4.5,4.5,0,0,0,6.92,0,7.15,7.15,0,0,0,1.41-4.79,8.84,8.84,0,0,0-.72-3.65,4.67,4.67,0,0,0-1.68-2,4.54,4.54,0,0,0-6,.88A7.54,7.54,0,0,0,411.48,90Z"/><path class="cls-2" d="M437.55,97.69V81.88h2.84l3.38,11.19.68,2.34c.16-.58.42-1.43.76-2.53l3.42-11h2.54V97.69h-1.82V84.47L445.2,97.69h-1.7l-4.13-13.45V97.69Z"/><path class="cls-2" d="M465.22,92.6l1.78-.17a4.42,4.42,0,0,0,.65,2,3.53,3.53,0,0,0,1.44,1.17,5,5,0,0,0,2.11.44,4.06,4.06,0,0,0,2.61-.75,2.37,2.37,0,0,0,.93-1.94,2.15,2.15,0,0,0-.34-1.22,2.48,2.48,0,0,0-1-.86,21.7,21.7,0,0,0-2.95-.94,11.19,11.19,0,0,1-2.87-1.09,4,4,0,0,1-1.33-1.4,3.92,3.92,0,0,1-.47-1.91,4,4,0,0,1,1.36-3.14,5.34,5.34,0,0,1,3.68-1.22,6.31,6.31,0,0,1,2.77.57,4.31,4.31,0,0,1,1.86,1.64,5,5,0,0,1,.7,2.51l-1.81.15a3.22,3.22,0,0,0-1-2.28,3.6,3.6,0,0,0-2.44-.75,3.93,3.93,0,0,0-2.45.66,2,2,0,0,0-.84,1.68,1.86,1.86,0,0,0,.62,1.49A7.8,7.8,0,0,0,471,88.34a18.5,18.5,0,0,1,3,.92,4.75,4.75,0,0,1,2,1.59,4.09,4.09,0,0,1,.67,2.36A4.58,4.58,0,0,1,474,97.38a6.68,6.68,0,0,1-2.89.58,6,6,0,0,1-4.22-1.45A5.26,5.26,0,0,1,465.22,92.6Z"/><path class="cls-2" d="M504.31,97.69V81.88h5.35a5.88,5.88,0,0,1,2.57.46,3.69,3.69,0,0,1,1.56,1.43,3.9,3.9,0,0,1,.61,2.14,3.77,3.77,0,0,1-2,3.36,3.81,3.81,0,0,1,2,1.4,4.08,4.08,0,0,1,.71,2.43,4.73,4.73,0,0,1-.65,2.52,3.8,3.8,0,0,1-1.72,1.58,7.26,7.26,0,0,1-3,.49Zm1.88-9.17h3.09a6.82,6.82,0,0,0,1.72-.15,2.16,2.16,0,0,0,1.14-.76,2.4,2.4,0,0,0,.4-1.45,2.6,2.6,0,0,0-.37-1.42,1.88,1.88,0,0,0-1-.78,7.38,7.38,0,0,0-2.16-.22h-2.86Zm0,7.3h3.55a5.7,5.7,0,0,0,1.74-.19,2.46,2.46,0,0,0,1.23-.92,2.9,2.9,0,0,0,.42-1.61,2.71,2.71,0,0,0-.41-1.52,2.34,2.34,0,0,0-1.08-.91,6,6,0,0,0-2.15-.28h-3.3Z"/><path class="cls-2" d="M530.84,97.69V81.88h6.32a7.34,7.34,0,0,1,2.92.44,3.64,3.64,0,0,1,1.55,1.47,4.66,4.66,0,0,1,.6,2.39,4.12,4.12,0,0,1-1,2.9,5,5,0,0,1-3,1.41,4.62,4.62,0,0,1,1.21.88,11,11,0,0,1,1.49,2l1.34,4.31h-2.37l-.76-3.29a21.13,21.13,0,0,0-1.66-2.6,3.38,3.38,0,0,0-1.09-.9,3.88,3.88,0,0,0-1.48-.23h-2.18v7Zm1.88-8.83h4.06a5.33,5.33,0,0,0,2-.3,2.42,2.42,0,0,0,1.09-.91,2.62,2.62,0,0,0,.4-1.46,2.4,2.4,0,0,0-.77-1.88,3.35,3.35,0,0,0-2.29-.68h-4.51Z"/><path class="cls-2" d="M556,90a9,9,0,0,1,1.95-6.22,6.3,6.3,0,0,1,4.88-2.17,6.37,6.37,0,0,1,3.44,1,6.81,6.81,0,0,1,2.46,2.82,10,10,0,0,1,.9,4.41,8.91,8.91,0,0,1-1.75,5.72,6.44,6.44,0,0,1-10.14-.06A8.73,8.73,0,0,1,556,90Zm1.94,0a6.62,6.62,0,0,0,1.42,4.54,4.4,4.4,0,0,0,3.44,1.62,4.44,4.44,0,0,0,3.48-1.63,7.15,7.15,0,0,0,1.41-4.79,8.84,8.84,0,0,0-.73-3.65,4.58,4.58,0,0,0-1.67-2,4.55,4.55,0,0,0-6,.88A7.59,7.59,0,0,0,557.91,90Z"/><path class="cls-2" d="M584.35,97.69V81.88h1.89v7.84l7.08-7.84h2.56l-6,6.41,6.25,9.4h-2.49l-5.06-8-2.35,2.52v5.48Z"/><path class="cls-2" d="M609,97.69V81.88h10.3v1.86h-8.41v4.84h7.88v1.86h-7.88v5.38h8.75v1.87Z"/><path class="cls-2" d="M634.68,97.69V81.88H641a7.34,7.34,0,0,1,2.92.44,3.58,3.58,0,0,1,1.55,1.47,4.66,4.66,0,0,1,.6,2.39,4.12,4.12,0,0,1-1,2.9,5,5,0,0,1-3,1.41,4.79,4.79,0,0,1,1.21.88,11.46,11.46,0,0,1,1.48,2l1.34,4.31h-2.37L643,94.4a20.86,20.86,0,0,0-1.67-2.6,3.28,3.28,0,0,0-1.09-.9,3.85,3.85,0,0,0-1.48-.23h-2.17v7Zm1.89-8.83h4a5.17,5.17,0,0,0,2-.3,2.39,2.39,0,0,0,1.1-.91,2.71,2.71,0,0,0,.4-1.46,2.4,2.4,0,0,0-.77-1.88,3.33,3.33,0,0,0-2.29-.68h-4.5Z"/><path class="cls-2" d="M658.83,97.69l5.5-15.81h2l5.84,15.81H670l-1.66-4.79h-6l-1.55,4.79Zm4.09-6.49h4.86l-1.48-4.38c-.46-1.35-.8-2.44-1-3.28a22,22,0,0,1-.78,3Z"/><path class="cls-2" d="M692.11,91.49V89.62h6v5.88a10.32,10.32,0,0,1-2.86,1.85,7.92,7.92,0,0,1-3,.62A7.36,7.36,0,0,1,688.5,97a6.79,6.79,0,0,1-2.58-2.77,9.33,9.33,0,0,1-1-4.39,10,10,0,0,1,1-4.51,6.6,6.6,0,0,1,2.51-2.83,7.12,7.12,0,0,1,3.68-.91,6.7,6.7,0,0,1,2.74.53,5,5,0,0,1,1.93,1.5,6.49,6.49,0,0,1,1.14,2.66l-1.7.52a5.63,5.63,0,0,0-.86-2,3.46,3.46,0,0,0-1.38-1,4.73,4.73,0,0,0-1.92-.38,5.09,5.09,0,0,0-2.67.68,4.76,4.76,0,0,0-1.8,2.14,8.14,8.14,0,0,0-.68,3.53,6.8,6.8,0,0,0,1.45,4.75,4.94,4.94,0,0,0,3.8,1.58,6,6,0,0,0,2.28-.48,5.87,5.87,0,0,0,1.85-1.16V91.49Z"/><path class="cls-2" d="M713.36,97.69V81.88h10.3v1.86h-8.42v4.84h7.89v1.86h-7.89v5.38H724v1.87Z"/><polygon class="cls-3" points="334.69 68.74 371.1 68.74 372.75 58.38 349.16 58.38 352.08 41.55 372.69 41.55 374.31 31.19 353.7 31.19 355.93 17.11 377.36 17.11 378.98 6.75 344.42 6.75 334.69 68.74"/><polygon class="cls-3" points="567.81 68.74 604.22 68.74 605.88 58.38 582.29 58.38 585.22 41.55 605.81 41.55 607.43 31.19 586.84 31.19 589.06 17.11 610.48 17.11 612.11 6.75 577.55 6.75 567.81 68.74"/><path class="cls-3" d="M432.51,6.75l-8.13,11q-2.92,4-7.22,10.31a9,9,0,0,0-.45-1.14l-3.46-8.58-5-11.63h-11.1l12.82,30.61L387.16,68.74h13.73L408,59.09q5.72-7.81,7.08-10.31,1,3.21,4,10.61L423,68.74h12L422.23,39.39,445.86,6.75Z"/><path class="cls-3" d="M491.42,8.34a16.92,16.92,0,0,0-8-1.59H464.47l-9.76,62h9.6L468,45.1h6.14a55.38,55.38,0,0,0,8.46-.42,18.58,18.58,0,0,0,6.16-2.1,15.06,15.06,0,0,0,4.28-4,23.32,23.32,0,0,0,3.35-7.11,30.88,30.88,0,0,0,1.37-9.13,20.47,20.47,0,0,0-1.71-8.73A11,11,0,0,0,491.42,8.34ZM486.73,29.5a9.11,9.11,0,0,1-4,4.06c-1.69.84-5.08,1.27-10.14,1.27h-3l2.83-17.89h6.87c3.12,0,5.12.22,6,.65a4.55,4.55,0,0,1,2.1,2.1,7.92,7.92,0,0,1,.75,3.68A13.08,13.08,0,0,1,486.73,29.5Z"/><path class="cls-3" d="M550.19,8.21a21.56,21.56,0,0,0-8.82-1.46h-22L509,68.74H521.1l4.28-25.67h2.28q3.62,0,5.06,1.23,2.37,2.07,4.46,8.07c2.57,7.42.66,16.37.66,16.37h10.94S548,53,545.69,48.19a25.14,25.14,0,0,0-3.68-5.8c5.11-.81,8.91-2.94,11.44-6.36s3.78-7.77,3.78-13a21,21,0,0,0-1.94-9.43A11,11,0,0,0,550.19,8.21ZM545.55,28.7a9.18,9.18,0,0,1-4.2,3.84q-2.69,1.23-10.89,1.23h-3.52l2.77-16.66H539q4.5,0,5.85,1a6,6,0,0,1,2.19,5.08A10.87,10.87,0,0,1,545.55,28.7Z"/><path class="cls-3" d="M645.89,15.8c3.36,0,5.91.79,7.63,2.37a9.24,9.24,0,0,1,3,6.43l11.48.23c-.36-5.67-2.43-10.61-6.17-14S652.8,5.69,646,5.69s-11.87,1.72-15.42,5.16a17.32,17.32,0,0,0-5.32,13A16.21,16.21,0,0,0,627,31.65a14.85,14.85,0,0,0,4.91,5.44,77.35,77.35,0,0,0,9.89,5.22q6.78,3.13,8.29,4.52a6,6,0,0,1,2.15,4.65,6.9,6.9,0,0,1-2.63,5.42c-1.75,1.49-4.58,2.24-8.51,2.24q-7.07,0-9.69-3.3c-1.09-1.36-1.71-4-1.87-7.82l-11.41.18a25.93,25.93,0,0,0,2.11,11.44A15.9,15.9,0,0,0,628,67.11a29.41,29.41,0,0,0,13,2.68q10.88,0,17-5.81a18.66,18.66,0,0,0,6.1-14A14.93,14.93,0,0,0,660,39.1q-2.73-2.88-12.79-7.49-6.69-3.09-8.63-4.86a5.63,5.63,0,0,1-2-4.4,6,6,0,0,1,2.13-4.69C640.21,16.42,642.57,15.8,645.89,15.8Z"/><path class="cls-3" d="M703,15.8c3.37,0,5.91.79,7.64,2.37a9.28,9.28,0,0,1,3,6.43l11.48.23c-.37-5.67-2.43-10.61-6.18-14s-9-5.12-15.88-5.12-11.87,1.72-15.42,5.16a17.33,17.33,0,0,0-5.33,13,16.21,16.21,0,0,0,1.8,7.82,14.91,14.91,0,0,0,4.9,5.44,78.34,78.34,0,0,0,9.9,5.22q6.78,3.13,8.29,4.52a6,6,0,0,1,2.15,4.65,6.9,6.9,0,0,1-2.63,5.42q-2.62,2.24-8.51,2.24-7.08,0-9.69-3.3c-1.09-1.36-1.71-4-1.87-7.82l-11.41.18a25.79,25.79,0,0,0,2.11,11.44,15.92,15.92,0,0,0,7.76,7.47,29.44,29.44,0,0,0,13,2.68q10.89,0,17-5.81a18.7,18.7,0,0,0,6.1-14,15,15,0,0,0-4.1-10.86q-2.73-2.88-12.8-7.49-6.67-3.09-8.62-4.86a5.63,5.63,0,0,1-1.95-4.4,6,6,0,0,1,2.13-4.69Q698,15.8,703,15.8Z"/></g></g></svg>