<svg xmlns="http://www.w3.org/2000/svg" viewBox="0 0 136.09 105.91"><defs><style>.cls-1,.cls-3{fill:#314085;}.cls-1{fill-rule:evenodd;}.cls-2{fill:#9cd1ea;}.cls-4{fill:#fff;}</style></defs><title>LogoIcon</title><g id="Слой_2" data-name="Слой 2"><g id="Layer_1" data-name="Layer 1"><path class="cls-1" d="M38.6,77.15C35.3,68.48,31.86,60,27.41,52.47c29-10.32,58.15-20.57,87.72-30.33-19,14.8-46.58,26.78-66.26,40.78C45,65.67,41.45,72,38.6,77.15Z"/><path class="cls-2" d="M20.72,77.21h92.55A53,53,0,0,0,116,70.88H18A54.58,54.58,0,0,0,20.72,77.21Z"/><path class="cls-2" d="M17.15,68.24h99.7a55.41,55.41,0,0,0,1.46-6.33H15.69A55.41,55.41,0,0,0,17.15,68.24Z"/><path class="cls-2" d="M67,105.91a51.18,51.18,0,0,0,29.29-9.18H37.71A51.16,51.16,0,0,0,67,105.91Z"/><path class="cls-2" d="M35.55,95.14h62.9a53.91,53.91,0,0,0,6.85-6.32H28.71A52.51,52.51,0,0,0,35.55,95.14Z"/><path class="cls-2" d="M26.88,86.71h80.23a52.56,52.56,0,0,0,5-7.39H21.85A53.42,53.42,0,0,0,26.88,86.71Z"/><path class="cls-2" d="M15.32,59.27H118.68a53.14,53.14,0,0,0,.37-5.81H15A50.76,50.76,0,0,0,15.32,59.27Z"/><path class="cls-2" d="M24.17,22.86h85.66c-.86-1.27-1.78-2.5-2.74-3.69H26.91Q25.46,21,24.17,22.86Z"/><path class="cls-2" d="M67,0A51.09,51.09,0,0,0,46.23,4.39H87.77A51.16,51.16,0,0,0,67,0Z"/><path class="cls-2" d="M37,9.67a56,56,0,0,0-4.58,3.69h69.12A54.47,54.47,0,0,0,97,9.67Z"/><path class="cls-2" d="M15,49.77H119c-.1-1.78-.3-3.55-.57-5.28H15.61A51,51,0,0,0,15,49.77Z"/><path class="cls-2" d="M19.26,31.83h95.48q-.92-2.16-2-4.22H21.28Q20.17,29.67,19.26,31.83Z"/><path class="cls-3" d="M60.62,59.2s-19.55,2-23.75,25.92L68,59.62A28,28,0,0,0,60.62,59.2Z"/><path class="cls-4" d="M37.24,79.91C35.77,69.24,29.66,45.35,4.29,39.08L134.2,13.61,90.4,75.73c-2.12-3.67-9.35-14.42-22.2-16.93l.52,1.31-1.36-1,.84-.33a28.3,28.3,0,0,0-5.43-.52c-.73,0-1.48,0-2.21.08C60.35,58.38,43.18,60.39,37.24,79.91Z"/><path class="cls-3" d="M132.31,14.84,90.46,74.21c-2.82-4.48-10-13.88-22.1-16.23L68,59.62h0L68.36,58a29.17,29.17,0,0,0-5.59-.54c-.75,0-1.52,0-2.32.09a27.57,27.57,0,0,0-11,4.25A30.81,30.81,0,0,0,37.57,76.46,61.19,61.19,0,0,0,33.71,63.6C29.92,54.79,22.43,44,7.86,39.23L132.31,14.84m3.78-2.45Zm0,0L0,39.06c36.62,5.8,36.87,46.06,36.87,46.06C41.07,61.21,60.62,59.2,60.62,59.2c.73-.06,1.45-.08,2.15-.08a27.89,27.89,0,0,1,5.27.5h0c15,2.93,22.27,17.7,22.27,17.7l45.78-64.93Z"/><path class="cls-3" d="M28.11,51.62s7.14,7.5,9.81,21.7a23.16,23.16,0,0,1,5.84-8.43,30.22,30.22,0,0,1,13.07-7.68l9.07-5.47,51.48-31Z"/></g></g></svg>